solid object
  facet normal -1.0 0.0 0.0
    outer loop
      vertex 0.0 0.0 0.0
      vertex 0.0 0.0 2.0
      vertex 0.0 3.0 2.0
    endloop
  endfacet
  facet normal -1.0 0.0 0.0
    outer loop
      vertex 0.0 0.0 0.0
      vertex 0.0 3.0 2.0
      vertex 0.0 3.0 0.0
    endloop
  endfacet
  facet normal 0.0 1.0 0.0
    outer loop
      vertex 0.0 0.0 0.0
      vertex 0.0 0.0 2.0
      vertex 5.0 0.0 2.0
    endloop
  endfacet
  facet normal 0.0 1.0 0.0
    outer loop
      vertex 0.0 0.0 0.0
      vertex 5.0 0.0 2.0
      vertex 5.0 0.0 0.0
    endloop
  endfacet
  facet normal 0.0 0.0 -1.0
    outer loop
      vertex 0.0 0.0 0.0
      vertex 0.0 3.0 0.0
      vertex 5.0 3.0 0.0
    endloop
  endfacet
  facet normal 0.0 0.0 -1.0
    outer loop
      vertex 0.0 0.0 0.0
      vertex 5.0 3.0 0.0
      vertex 5.0 0.0 0.0
    endloop
  endfacet
  facet normal 0.0 0.0 -1.0
    outer loop
      vertex 0.0 0.0 2.0
      vertex 0.0 3.0 2.0
      vertex 5.0 3.0 2.0
    endloop
  endfacet
  facet normal 0.0 0.0 -1.0
    outer loop
      vertex 0.0 0.0 2.0
      vertex 5.0 3.0 2.0
      vertex 5.0 0.0 2.0
    endloop
  endfacet
  facet normal 0.0 1.0 0.0
    outer loop
      vertex 0.0 3.0 0.0
      vertex 0.0 3.0 2.0
      vertex 5.0 3.0 2.0
    endloop
  endfacet
  facet normal 0.0 1.0 0.0
    outer loop
      vertex 0.0 3.0 0.0
      vertex 5.0 3.0 2.0
      vertex 5.0 3.0 0.0
    endloop
  endfacet
  facet normal -1.0 0.0 0.0
    outer loop
      vertex 5.0 0.0 0.0
      vertex 5.0 0.0 2.0
      vertex 5.0 3.0 2.0
    endloop
  endfacet
  facet normal -1.0 0.0 0.0
    outer loop
      vertex 5.0 0.0 0.0
      vertex 5.0 3.0 2.0
      vertex 5.0 3.0 0.0
    endloop
  endfacet
endsolid object
