solid object
  facet normal 0.0 0.0 1.0
    outer loop
      vertex 0 0 0
      vertex 3 0 0
      vertex 3 2 0
    endloop
  endfacet
  facet normal 0.0 0.0 1.0
    outer loop
      vertex 0 0 0
      vertex 3 2 0
      vertex 0 2 0
    endloop
  endfacet
  facet normal 0.0 -1.0 0.0
    outer loop
      vertex 0 0 0
      vertex 3 0 0
      vertex 3 0 2
    endloop
  endfacet
  facet normal 0.0 -1.0 0.0
    outer loop
      vertex 0 0 0
      vertex 3 0 2
      vertex 0 0 2
    endloop
  endfacet
  facet normal 1.0 0.0 0.0
    outer loop
      vertex 0 0 0
      vertex 0 2 0
      vertex 0 2 2
    endloop
  endfacet
  facet normal 1.0 0.0 0.0
    outer loop
      vertex 0 0 0
      vertex 0 2 2
      vertex 0 0 2
    endloop
  endfacet
  facet normal 1.0 0.0 0.0
    outer loop
      vertex 3 0 0
      vertex 3 2 0
      vertex 3 2 2
    endloop
  endfacet
  facet normal 1.0 0.0 0.0
    outer loop
      vertex 3 0 0
      vertex 3 2 2
      vertex 3 0 2
    endloop
  endfacet
  facet normal 0.0 1.0 0.0
    outer loop
      vertex 3 2 0
      vertex 0 2 0
      vertex 0 2 2
    endloop
  endfacet
  facet normal 0.0 1.0 0.0
    outer loop
      vertex 3 2 0
      vertex 0 2 2
      vertex 3 2 2
    endloop
  endfacet
  facet normal 0.0 0.0 1.0
    outer loop
      vertex 0 0 2
      vertex 3 0 2
      vertex 3 2 2
    endloop
  endfacet
  facet normal 0.0 0.0 1.0
    outer loop
      vertex 0 0 2
      vertex 3 2 2
      vertex 0 2 2
    endloop
  endfacet
endsolid object
