solid wireframe
  facet normal 0.0 0.0 -1.0
    outer loop
      vertex 0.0 -0.08 0.0
      vertex 0.0 0.08 0.0
      vertex 6.0 -0.08 0.0
    endloop
  endfacet
  facet normal 0.0 0.0 -1.0
    outer loop
      vertex 0.0 0.08 0.0
      vertex 6.0 0.08 0.0
      vertex 6.0 -0.08 0.0
    endloop
  endfacet
  facet normal 0.0 0.0 -1.0
    outer loop
      vertex 6.08 0.0 0.0
      vertex 5.92 0.0 0.0
      vertex 6.08 4.0 0.0
    endloop
  endfacet
  facet normal 0.0 0.0 -1.0
    outer loop
      vertex 5.92 0.0 0.0
      vertex 5.92 4.0 0.0
      vertex 6.08 4.0 0.0
    endloop
  endfacet
  facet normal -0.0 -0.0 -1.0
    outer loop
      vertex 6.0 4.08 0.0
      vertex 6.0 3.92 0.0
      vertex 0.0 4.08 0.0
    endloop
  endfacet
  facet normal -0.0 -0.0 -1.0
    outer loop
      vertex 6.0 3.92 0.0
      vertex 0.0 3.92 0.0
      vertex 0.0 4.08 0.0
    endloop
  endfacet
  facet normal 0.0 0.0 -1.0
    outer loop
      vertex -0.08 4.0 0.0
      vertex 0.08 4.0 0.0
      vertex -0.08 0.0 0.0
    endloop
  endfacet
  facet normal 0.0 0.0 -1.0
    outer loop
      vertex 0.08 4.0 0.0
      vertex 0.08 0.0 0.0
      vertex -0.08 0.0 0.0
    endloop
  endfacet
  facet normal 0.0 0.0 -1.0
    outer loop
      vertex 0.0 -0.08 8.0
      vertex 0.0 0.08 8.0
      vertex 6.0 -0.08 8.0
    endloop
  endfacet
  facet normal 0.0 0.0 -1.0
    outer loop
      vertex 0.0 0.08 8.0
      vertex 6.0 0.08 8.0
      vertex 6.0 -0.08 8.0
    endloop
  endfacet
  facet normal 0.0 0.0 -1.0
    outer loop
      vertex 6.08 0.0 8.0
      vertex 5.92 0.0 8.0
      vertex 6.08 4.0 8.0
    endloop
  endfacet
  facet normal 0.0 0.0 -1.0
    outer loop
      vertex 5.92 0.0 8.0
      vertex 5.92 4.0 8.0
      vertex 6.08 4.0 8.0
    endloop
  endfacet
  facet normal -0.0 -0.0 -1.0
    outer loop
      vertex 6.0 4.08 8.0
      vertex 6.0 3.92 8.0
      vertex 0.0 4.08 8.0
    endloop
  endfacet
  facet normal -0.0 -0.0 -1.0
    outer loop
      vertex 6.0 3.92 8.0
      vertex 0.0 3.92 8.0
      vertex 0.0 4.08 8.0
    endloop
  endfacet
  facet normal 0.0 0.0 -1.0
    outer loop
      vertex -0.08 4.0 8.0
      vertex 0.08 4.0 8.0
      vertex -0.08 0.0 8.0
    endloop
  endfacet
  facet normal 0.0 0.0 -1.0
    outer loop
      vertex 0.08 4.0 8.0
      vertex 0.08 0.0 8.0
      vertex -0.08 0.0 8.0
    endloop
  endfacet
  facet normal -1.0 0.0 0.0
    outer loop
      vertex 0.0 0.08 0.0
      vertex 0.0 -0.08 0.0
      vertex 0.0 0.08 8.0
    endloop
  endfacet
  facet normal -1.0 0.0 0.0
    outer loop
      vertex 0.0 -0.08 0.0
      vertex 0.0 -0.08 8.0
      vertex 0.0 0.08 8.0
    endloop
  endfacet
  facet normal -1.0 0.0 0.0
    outer loop
      vertex 6.0 0.08 0.0
      vertex 6.0 -0.08 0.0
      vertex 6.0 0.08 8.0
    endloop
  endfacet
  facet normal -1.0 0.0 0.0
    outer loop
      vertex 6.0 -0.08 0.0
      vertex 6.0 -0.08 8.0
      vertex 6.0 0.08 8.0
    endloop
  endfacet
  facet normal -1.0 0.0 0.0
    outer loop
      vertex 6.0 4.08 0.0
      vertex 6.0 3.92 0.0
      vertex 6.0 4.08 8.0
    endloop
  endfacet
  facet normal -1.0 0.0 0.0
    outer loop
      vertex 6.0 3.92 0.0
      vertex 6.0 3.92 8.0
      vertex 6.0 4.08 8.0
    endloop
  endfacet
  facet normal -1.0 0.0 0.0
    outer loop
      vertex 0.0 4.08 0.0
      vertex 0.0 3.92 0.0
      vertex 0.0 4.08 8.0
    endloop
  endfacet
  facet normal -1.0 0.0 0.0
    outer loop
      vertex 0.0 3.92 0.0
      vertex 0.0 3.92 8.0
      vertex 0.0 4.08 8.0
    endloop
  endfacet
  facet normal -1.0 0.0 0.0
    outer loop
      vertex 0.0 -0.08 8.0
      vertex 0.0 0.08 8.0
      vertex 0.0 -0.08 0.0
    endloop
  endfacet
  facet normal -1.0 0.0 0.0
    outer loop
      vertex 0.0 0.08 8.0
      vertex 0.0 0.08 0.0
      vertex 0.0 -0.08 0.0
    endloop
  endfacet
  facet normal 0.0 0.0 -1.0
    outer loop
      vertex 0.0 3.92 0.0
      vertex 0.0 4.08 0.0
      vertex 6.0 3.92 0.0
    endloop
  endfacet
  facet normal 0.0 0.0 -1.0
    outer loop
      vertex 0.0 4.08 0.0
      vertex 6.0 4.08 0.0
      vertex 6.0 3.92 0.0
    endloop
  endfacet
  facet normal -1.0 0.0 0.0
    outer loop
      vertex 6.0 -0.08 8.0
      vertex 6.0 0.08 8.0
      vertex 6.0 -0.08 0.0
    endloop
  endfacet
  facet normal -1.0 0.0 0.0
    outer loop
      vertex 6.0 0.08 8.0
      vertex 6.0 0.08 0.0
      vertex 6.0 -0.08 0.0
    endloop
  endfacet
  facet normal 0.0 0.0 -1.0
    outer loop
      vertex -2.92 0.0 8.0
      vertex -3.08 0.0 8.0
      vertex -2.92 4.0 8.0
    endloop
  endfacet
  facet normal 0.0 0.0 -1.0
    outer loop
      vertex -3.08 0.0 8.0
      vertex -3.08 4.0 8.0
      vertex -2.92 4.0 8.0
    endloop
  endfacet
  facet normal 0.0 0.0 -1.0
    outer loop
      vertex -3.0 3.92 8.0
      vertex -3.0 4.08 8.0
      vertex 0.0 3.92 8.0
    endloop
  endfacet
  facet normal 0.0 0.0 -1.0
    outer loop
      vertex -3.0 4.08 8.0
      vertex 0.0 4.08 8.0
      vertex 0.0 3.92 8.0
    endloop
  endfacet
  facet normal 0.0 0.0 -1.0
    outer loop
      vertex -0.08 4.0 8.0
      vertex 0.08 4.0 8.0
      vertex -0.08 0.0 8.0
    endloop
  endfacet
  facet normal 0.0 0.0 -1.0
    outer loop
      vertex 0.08 4.0 8.0
      vertex 0.08 0.0 8.0
      vertex -0.08 0.0 8.0
    endloop
  endfacet
  facet normal -0.0 -0.0 -1.0
    outer loop
      vertex 0.0 0.08 8.0
      vertex 0.0 -0.08 8.0
      vertex -3.0 0.08 8.0
    endloop
  endfacet
  facet normal -0.0 -0.0 -1.0
    outer loop
      vertex 0.0 -0.08 8.0
      vertex -3.0 -0.08 8.0
      vertex -3.0 0.08 8.0
    endloop
  endfacet
  facet normal -1.0 0.0 0.0
    outer loop
      vertex -3.0 -0.08 8.0
      vertex -3.0 0.08 8.0
      vertex -3.0 -0.08 5.0
    endloop
  endfacet
  facet normal -1.0 0.0 0.0
    outer loop
      vertex -3.0 0.08 8.0
      vertex -3.0 0.08 5.0
      vertex -3.0 -0.08 5.0
    endloop
  endfacet
  facet normal -1.0 0.0 0.0
    outer loop
      vertex -3.0 3.92 8.0
      vertex -3.0 4.08 8.0
      vertex -3.0 3.92 5.0
    endloop
  endfacet
  facet normal -1.0 0.0 0.0
    outer loop
      vertex -3.0 4.08 8.0
      vertex -3.0 4.08 5.0
      vertex -3.0 3.92 5.0
    endloop
  endfacet
  facet normal 0.0 0.0 -1.0
    outer loop
      vertex -3.0 -0.08 5.0
      vertex -3.0 0.08 5.0
      vertex 0.0 -0.08 5.0
    endloop
  endfacet
  facet normal 0.0 0.0 -1.0
    outer loop
      vertex -3.0 0.08 5.0
      vertex 0.0 0.08 5.0
      vertex 0.0 -0.08 5.0
    endloop
  endfacet
  facet normal 0.0 0.0 -1.0
    outer loop
      vertex -3.0 3.92 5.0
      vertex -3.0 4.08 5.0
      vertex 0.0 3.92 5.0
    endloop
  endfacet
  facet normal 0.0 0.0 -1.0
    outer loop
      vertex -3.0 4.08 5.0
      vertex 0.0 4.08 5.0
      vertex 0.0 3.92 5.0
    endloop
  endfacet
  facet normal -1.0 0.0 0.0
    outer loop
      vertex 0.0 0.08 5.0
      vertex 0.0 -0.08 5.0
      vertex 0.0 0.08 8.0
    endloop
  endfacet
  facet normal -1.0 0.0 0.0
    outer loop
      vertex 0.0 -0.08 5.0
      vertex 0.0 -0.08 8.0
      vertex 0.0 0.08 8.0
    endloop
  endfacet
  facet normal -1.0 0.0 0.0
    outer loop
      vertex 0.0 4.08 5.0
      vertex 0.0 3.92 5.0
      vertex 0.0 4.08 8.0
    endloop
  endfacet
  facet normal -1.0 0.0 0.0
    outer loop
      vertex 0.0 3.92 5.0
      vertex 0.0 3.92 8.0
      vertex 0.0 4.08 8.0
    endloop
  endfacet
  facet normal -1.0 0.0 0.0
    outer loop
      vertex -3.0 4.08 5.0
      vertex -3.0 3.92 5.0
      vertex -3.0 4.08 8.0
    endloop
  endfacet
  facet normal -1.0 0.0 0.0
    outer loop
      vertex -3.0 3.92 5.0
      vertex -3.0 3.92 8.0
      vertex -3.0 4.08 8.0
    endloop
  endfacet
  facet normal -1.0 0.0 0.0
    outer loop
      vertex 0.0 -0.08 5.0
      vertex 0.0 0.08 5.0
      vertex 0.0 -0.08 4.0
    endloop
  endfacet
  facet normal -1.0 0.0 0.0
    outer loop
      vertex 0.0 0.08 5.0
      vertex 0.0 0.08 4.0
      vertex 0.0 -0.08 4.0
    endloop
  endfacet
  facet normal -1.0 0.0 0.0
    outer loop
      vertex 0.0 3.92 5.0
      vertex 0.0 4.08 5.0
      vertex 0.0 3.92 4.0
    endloop
  endfacet
  facet normal -1.0 0.0 0.0
    outer loop
      vertex 0.0 4.08 5.0
      vertex 0.0 4.08 4.0
      vertex 0.0 3.92 4.0
    endloop
  endfacet
  facet normal 0.0 0.0 -1.0
    outer loop
      vertex 0.08 0.0 5.0
      vertex -0.08 0.0 5.0
      vertex 0.08 4.0 5.0
    endloop
  endfacet
  facet normal 0.0 0.0 -1.0
    outer loop
      vertex -0.08 0.0 5.0
      vertex -0.08 4.0 5.0
      vertex 0.08 4.0 5.0
    endloop
  endfacet
  facet normal 0.0 0.0 -1.0
    outer loop
      vertex 0.08 0.0 4.0
      vertex -0.08 0.0 4.0
      vertex 0.08 4.0 4.0
    endloop
  endfacet
  facet normal 0.0 0.0 -1.0
    outer loop
      vertex -0.08 0.0 4.0
      vertex -0.08 4.0 4.0
      vertex 0.08 4.0 4.0
    endloop
  endfacet
  facet normal -1.0 0.0 0.0
    outer loop
      vertex 0.0 -0.08 4.0
      vertex 0.0 0.08 4.0
      vertex 0.0 -0.08 0.0
    endloop
  endfacet
  facet normal -1.0 0.0 0.0
    outer loop
      vertex 0.0 0.08 4.0
      vertex 0.0 0.08 0.0
      vertex 0.0 -0.08 0.0
    endloop
  endfacet
  facet normal -1.0 0.0 0.0
    outer loop
      vertex 0.0 3.92 4.0
      vertex 0.0 4.08 4.0
      vertex 0.0 3.92 0.0
    endloop
  endfacet
  facet normal -1.0 0.0 0.0
    outer loop
      vertex 0.0 4.08 4.0
      vertex 0.0 4.08 0.0
      vertex 0.0 3.92 0.0
    endloop
  endfacet
  facet normal 0.0 0.0 -1.0
    outer loop
      vertex -2.92 0.0 5.0
      vertex -3.08 0.0 5.0
      vertex -2.92 4.0 5.0
    endloop
  endfacet
  facet normal 0.0 0.0 -1.0
    outer loop
      vertex -3.08 0.0 5.0
      vertex -3.08 4.0 5.0
      vertex -2.92 4.0 5.0
    endloop
  endfacet
endsolid wireframe
