solid object
  facet normal 0.0 0.0 -1.0
    outer loop
      vertex 0 0 0
      vertex 6 4 0
      vertex 6 0 0
    endloop
  endfacet
  facet normal 0.0 0.0 -1.0
    outer loop
      vertex 0 0 0
      vertex 0 4 0
      vertex 6 4 0
    endloop
  endfacet
  facet normal 0.0 -1.0 0.0
    outer loop
      vertex 0 0 0
      vertex 6 0 0
      vertex 6 0 8
    endloop
  endfacet
  facet normal 0.0 -1.0 0.0
    outer loop
      vertex 0 0 0
      vertex 6 0 8
      vertex 0 0 8
    endloop
  endfacet
  facet normal 0.0 0.0 -1.0
    outer loop
      vertex 0 0 0
      vertex 0 4 0
      vertex 6 4 0
    endloop
  endfacet
  facet normal 0.0 0.0 -1.0
    outer loop
      vertex 0 0 0
      vertex 6 4 0
      vertex 6 0 0
    endloop
  endfacet
  facet normal -1.0 0.0 0.0
    outer loop
      vertex 0 0 0
      vertex 0 4 8
      vertex 0 4 0
    endloop
  endfacet
  facet normal -1.0 0.0 0.0
    outer loop
      vertex 0 0 0
      vertex 0 0 8
      vertex 0 4 8
    endloop
  endfacet
  facet normal -1.0 0.0 0.0
    outer loop
      vertex 0 0 0
      vertex 0 4 4
      vertex 0 4 0
    endloop
  endfacet
  facet normal -1.0 0.0 0.0
    outer loop
      vertex 0 0 0
      vertex 0 0 4
      vertex 0 4 4
    endloop
  endfacet
  facet normal 0.0 -1.0 0.0
    outer loop
      vertex 0 0 0
      vertex 6 0 8
      vertex 0 0 8
    endloop
  endfacet
  facet normal 0.0 -1.0 0.0
    outer loop
      vertex 0 0 0
      vertex 6 0 0
      vertex 6 0 8
    endloop
  endfacet
  facet normal -1.0 0.0 0.0
    outer loop
      vertex 0 0 0
      vertex 0 0 8
      vertex 0 4 8
    endloop
  endfacet
  facet normal -1.0 0.0 0.0
    outer loop
      vertex 0 0 0
      vertex 0 4 8
      vertex 0 4 0
    endloop
  endfacet
  facet normal -1.0 0.0 0.0
    outer loop
      vertex 0 0 0
      vertex 0 0 4
      vertex 0 4 4
    endloop
  endfacet
  facet normal -1.0 0.0 0.0
    outer loop
      vertex 0 0 0
      vertex 0 4 4
      vertex 0 4 0
    endloop
  endfacet
  facet normal 0.0 -1.0 0.0
    outer loop
      vertex 0 0 0
      vertex 6 0 0
      vertex 6 0 8
    endloop
  endfacet
  facet normal 0.0 -1.0 0.0
    outer loop
      vertex 0 0 0
      vertex 6 0 8
      vertex 0 0 8
    endloop
  endfacet
  facet normal 0 0 1
    outer loop
      vertex 0 0 0
      vertex 0 0 8
      vertex 0 0 5
    endloop
  endfacet
  facet normal 0 0 1
    outer loop
      vertex 0 0 0
      vertex 0 0 5
      vertex 0 0 4
    endloop
  endfacet
  facet normal -1.0 0.0 0.0
    outer loop
      vertex 0 0 0
      vertex 0 4 8
      vertex 0 4 0
    endloop
  endfacet
  facet normal -1.0 0.0 0.0
    outer loop
      vertex 0 0 0
      vertex 0 0 8
      vertex 0 4 8
    endloop
  endfacet
  facet normal 0 0 1
    outer loop
      vertex 0 0 0
      vertex 0 0 8
      vertex 0 0 5
    endloop
  endfacet
  facet normal 0 0 1
    outer loop
      vertex 0 0 0
      vertex 0 0 5
      vertex 0 0 4
    endloop
  endfacet
  facet normal -1.0 0.0 0.0
    outer loop
      vertex 0 0 0
      vertex 0 4 8
      vertex 0 4 0
    endloop
  endfacet
  facet normal -1.0 0.0 0.0
    outer loop
      vertex 0 0 0
      vertex 0 4 8
      vertex 0 4 5
    endloop
  endfacet
  facet normal -1.0 0.0 0.0
    outer loop
      vertex 0 0 0
      vertex 0 4 5
      vertex 0 4 4
    endloop
  endfacet
  facet normal -1.0 0.0 0.0
    outer loop
      vertex 0 0 0
      vertex 0 0 4
      vertex 0 4 4
    endloop
  endfacet
  facet normal -1.0 0.0 0.0
    outer loop
      vertex 0 0 0
      vertex 0 4 8
      vertex 0 4 0
    endloop
  endfacet
  facet normal -1.0 0.0 0.0
    outer loop
      vertex 0 0 0
      vertex 0 4 8
      vertex 0 4 5
    endloop
  endfacet
  facet normal -1.0 0.0 0.0
    outer loop
      vertex 0 0 0
      vertex 0 0 5
      vertex 0 4 5
    endloop
  endfacet
  facet normal 0 0 1
    outer loop
      vertex 0 0 0
      vertex 0 0 5
      vertex 0 0 8
    endloop
  endfacet
  facet normal -1.0 0.0 0.0
    outer loop
      vertex 0 0 0
      vertex 0 4 8
      vertex 0 4 0
    endloop
  endfacet
  facet normal -1.0 0.0 0.0
    outer loop
      vertex 0 0 0
      vertex 0 4 8
      vertex 0 4 5
    endloop
  endfacet
  facet normal -1.0 0.0 0.0
    outer loop
      vertex 0 0 0
      vertex 0 0 5
      vertex 0 4 5
    endloop
  endfacet
  facet normal 0 0 1
    outer loop
      vertex 0 0 0
      vertex 0 0 5
      vertex 0 0 4
    endloop
  endfacet
  facet normal -1.0 0.0 0.0
    outer loop
      vertex 0 0 0
      vertex 0 4 4
      vertex 0 4 0
    endloop
  endfacet
  facet normal -1.0 0.0 0.0
    outer loop
      vertex 0 0 0
      vertex 0 4 5
      vertex 0 4 4
    endloop
  endfacet
  facet normal -1.0 0.0 0.0
    outer loop
      vertex 0 0 0
      vertex 0 4 8
      vertex 0 4 5
    endloop
  endfacet
  facet normal -1.0 0.0 0.0
    outer loop
      vertex 0 0 0
      vertex 0 0 8
      vertex 0 4 8
    endloop
  endfacet
  facet normal -1.0 0.0 0.0
    outer loop
      vertex 0 0 0
      vertex 0 4 4
      vertex 0 4 0
    endloop
  endfacet
  facet normal -1.0 0.0 0.0
    outer loop
      vertex 0 0 0
      vertex 0 4 5
      vertex 0 4 4
    endloop
  endfacet
  facet normal -1.0 0.0 0.0
    outer loop
      vertex 0 0 0
      vertex 0 0 5
      vertex 0 4 5
    endloop
  endfacet
  facet normal 0 0 1
    outer loop
      vertex 0 0 0
      vertex 0 0 5
      vertex 0 0 8
    endloop
  endfacet
  facet normal -1.0 0.0 0.0
    outer loop
      vertex 0 0 0
      vertex 0 4 4
      vertex 0 4 0
    endloop
  endfacet
  facet normal -1.0 0.0 0.0
    outer loop
      vertex 0 0 0
      vertex 0 4 5
      vertex 0 4 4
    endloop
  endfacet
  facet normal -1.0 0.0 0.0
    outer loop
      vertex 0 0 0
      vertex 0 0 5
      vertex 0 4 5
    endloop
  endfacet
  facet normal 0 0 1
    outer loop
      vertex 0 0 0
      vertex 0 0 5
      vertex 0 0 4
    endloop
  endfacet
  facet normal 0.0 -1.0 0.0
    outer loop
      vertex 0 0 0
      vertex 0 0 8
      vertex -3 0 8
    endloop
  endfacet
  facet normal 0.0 -1.0 0.0
    outer loop
      vertex 0 0 0
      vertex -3 0 8
      vertex -3 0 5
    endloop
  endfacet
  facet normal 0.0 -1.0 0.0
    outer loop
      vertex 0 0 0
      vertex 0 0 5
      vertex -3 0 5
    endloop
  endfacet
  facet normal 0 0 1
    outer loop
      vertex 0 0 0
      vertex 0 0 5
      vertex 0 0 4
    endloop
  endfacet
  facet normal 0.0 1.0 0.0
    outer loop
      vertex 6 4 0
      vertex 0 4 0
      vertex 0 4 4
    endloop
  endfacet
  facet normal 0.0 1.0 0.0
    outer loop
      vertex 6 4 0
      vertex 0 4 4
      vertex 0 4 5
    endloop
  endfacet
  facet normal 0.0 1.0 0.0
    outer loop
      vertex 6 4 0
      vertex -3 4 5
      vertex 0 4 5
    endloop
  endfacet
  facet normal 0.0 1.0 0.0
    outer loop
      vertex 6 4 0
      vertex -3 4 5
      vertex -3 4 8
    endloop
  endfacet
  facet normal 0.0 1.0 0.0
    outer loop
      vertex 6 4 0
      vertex -3 4 8
      vertex 0 4 8
    endloop
  endfacet
  facet normal 0.0 1.0 0.0
    outer loop
      vertex 6 4 0
      vertex 0 4 8
      vertex 6 4 8
    endloop
  endfacet
  facet normal 0.0 0.0 1.0
    outer loop
      vertex 0 0 8
      vertex 6 0 8
      vertex 6 4 8
    endloop
  endfacet
  facet normal 0.0 0.0 1.0
    outer loop
      vertex 0 0 8
      vertex 6 4 8
      vertex 0 4 8
    endloop
  endfacet
  facet normal 0.0 0.0 1.0
    outer loop
      vertex 0 0 8
      vertex 0 4 8
      vertex -3 4 8
    endloop
  endfacet
  facet normal 0.0 0.0 1.0
    outer loop
      vertex 0 0 8
      vertex -3 4 8
      vertex -3 0 8
    endloop
  endfacet
endsolid object
