solid object
  facet normal 0.0 0.0 1.0
    outer loop
      vertex 0 0 0
      vertex 6 0 0
      vertex 6 4 0
    endloop
  endfacet
  facet normal 0.0 0.0 1.0
    outer loop
      vertex 0 0 0
      vertex 6 4 0
      vertex 0 4 0
    endloop
  endfacet
  facet normal 0.0 0.0 1.0
    outer loop
      vertex 0 0 6
      vertex 6 0 6
      vertex 6 4 6
    endloop
  endfacet
  facet normal 0.0 0.0 1.0
    outer loop
      vertex 0 0 6
      vertex 6 4 6
      vertex 0 4 6
    endloop
  endfacet
  facet normal 0.0 0.0 -1.0
    outer loop
      vertex 0 0 6
      vertex 0 4 6
      vertex 2 4 6
    endloop
  endfacet
  facet normal 0.0 0.0 -1.0
    outer loop
      vertex 0 0 6
      vertex 2 4 6
      vertex 2 0 6
    endloop
  endfacet
  facet normal 0.0 0.0 1.0
    outer loop
      vertex 6 0 6
      vertex 6 4 6
      vertex 4 4 6
    endloop
  endfacet
  facet normal 0.0 0.0 1.0
    outer loop
      vertex 6 0 6
      vertex 4 4 6
      vertex 4 0 6
    endloop
  endfacet
  facet normal 0.0 0.0 1.0
    outer loop
      vertex 2 0 6
      vertex 4 0 6
      vertex 4 4 6
    endloop
  endfacet
  facet normal 0.0 0.0 1.0
    outer loop
      vertex 2 0 6
      vertex 4 4 6
      vertex 2 4 6
    endloop
  endfacet
  facet normal 0.0 0.0 1.0
    outer loop
      vertex 2 0 9
      vertex 4 0 9
      vertex 4 4 9
    endloop
  endfacet
  facet normal 0.0 0.0 1.0
    outer loop
      vertex 2 0 9
      vertex 4 4 9
      vertex 2 4 9
    endloop
  endfacet
  facet normal 0.0 -1.0 0.0
    outer loop
      vertex 0 0 0
      vertex 6 0 0
      vertex 6 0 6
    endloop
  endfacet
  facet normal 0.0 -1.0 0.0
    outer loop
      vertex 0 0 0
      vertex 6 0 6
      vertex 0 0 6
    endloop
  endfacet
  facet normal 0.0 1.0 0.0
    outer loop
      vertex 6 4 0
      vertex 0 4 0
      vertex 0 4 6
    endloop
  endfacet
  facet normal 0.0 1.0 0.0
    outer loop
      vertex 6 4 0
      vertex 0 4 6
      vertex 6 4 6
    endloop
  endfacet
  facet normal 1.0 0.0 0.0
    outer loop
      vertex 0 0 0
      vertex 0 4 0
      vertex 0 4 6
    endloop
  endfacet
  facet normal 1.0 0.0 0.0
    outer loop
      vertex 0 0 0
      vertex 0 4 6
      vertex 0 0 6
    endloop
  endfacet
  facet normal 1.0 0.0 0.0
    outer loop
      vertex 6 0 0
      vertex 6 4 0
      vertex 6 4 6
    endloop
  endfacet
  facet normal 1.0 0.0 0.0
    outer loop
      vertex 6 0 0
      vertex 6 4 6
      vertex 6 0 6
    endloop
  endfacet
  facet normal 1.0 0.0 0.0
    outer loop
      vertex 2 0 6
      vertex 2 4 6
      vertex 2 4 9
    endloop
  endfacet
  facet normal 1.0 0.0 0.0
    outer loop
      vertex 2 0 6
      vertex 2 4 9
      vertex 2 0 9
    endloop
  endfacet
  facet normal 1.0 0.0 0.0
    outer loop
      vertex 4 0 6
      vertex 4 4 6
      vertex 4 4 9
    endloop
  endfacet
  facet normal 1.0 0.0 0.0
    outer loop
      vertex 4 0 6
      vertex 4 4 9
      vertex 4 0 9
    endloop
  endfacet
  facet normal 0.0 -1.0 0.0
    outer loop
      vertex 2 0 6
      vertex 4 0 6
      vertex 4 0 9
    endloop
  endfacet
  facet normal 0.0 -1.0 0.0
    outer loop
      vertex 2 0 6
      vertex 4 0 9
      vertex 2 0 9
    endloop
  endfacet
  facet normal 0.0 1.0 0.0
    outer loop
      vertex 4 4 6
      vertex 2 4 6
      vertex 2 4 9
    endloop
  endfacet
  facet normal 0.0 1.0 0.0
    outer loop
      vertex 4 4 6
      vertex 2 4 9
      vertex 4 4 9
    endloop
  endfacet
endsolid object
