solid object
  facet normal 0.0 -1.0 0.0
    outer loop
      vertex 0 0 0
      vertex 6 0 0
      vertex 6 0 6
    endloop
  endfacet
  facet normal 0.0 -1.0 0.0
    outer loop
      vertex 0 0 0
      vertex 6 0 6
      vertex 0 0 6
    endloop
  endfacet
  facet normal -1.0 0.0 0.0
    outer loop
      vertex 0 0 0
      vertex 0 6 6
      vertex 0 6 0
    endloop
  endfacet
  facet normal -1.0 0.0 0.0
    outer loop
      vertex 0 0 0
      vertex 0 0 6
      vertex 0 6 6
    endloop
  endfacet
  facet normal 0.0 -1.0 0.0
    outer loop
      vertex 6 2 0
      vertex 2 2 6
      vertex 2 2 0
    endloop
  endfacet
  facet normal 0.0 -1.0 0.0
    outer loop
      vertex 6 2 0
      vertex 6 2 6
      vertex 2 2 6
    endloop
  endfacet
  facet normal -1.0 0.0 0.0
    outer loop
      vertex 2 2 0
      vertex 2 6 6
      vertex 2 6 0
    endloop
  endfacet
  facet normal -1.0 0.0 0.0
    outer loop
      vertex 2 2 0
      vertex 2 2 6
      vertex 2 6 6
    endloop
  endfacet
  facet normal 1.0 0.0 0.0
    outer loop
      vertex 6 0 0
      vertex 6 2 0
      vertex 6 2 6
    endloop
  endfacet
  facet normal 1.0 0.0 0.0
    outer loop
      vertex 6 0 0
      vertex 6 2 6
      vertex 6 0 6
    endloop
  endfacet
  facet normal 0.0 1.0 0.0
    outer loop
      vertex 2 6 0
      vertex 0 6 0
      vertex 0 6 6
    endloop
  endfacet
  facet normal 0.0 1.0 0.0
    outer loop
      vertex 2 6 0
      vertex 0 6 6
      vertex 2 6 6
    endloop
  endfacet
  facet normal 0.0 0.0 -1.0
    outer loop
      vertex 0 0 0
      vertex 6 2 0
      vertex 6 0 0
    endloop
  endfacet
  facet normal 0.0 0.0 -1.0
    outer loop
      vertex 0 0 0
      vertex 2 2 0
      vertex 6 2 0
    endloop
  endfacet
  facet normal 0.0 0.0 -1.0
    outer loop
      vertex 0 0 0
      vertex 2 6 0
      vertex 2 2 0
    endloop
  endfacet
  facet normal 0.0 0.0 -1.0
    outer loop
      vertex 0 0 0
      vertex 0 6 0
      vertex 2 6 0
    endloop
  endfacet
  facet normal 0.0 0.0 1.0
    outer loop
      vertex 0 0 6
      vertex 6 0 6
      vertex 6 2 6
    endloop
  endfacet
  facet normal 0.0 0.0 1.0
    outer loop
      vertex 0 0 6
      vertex 6 2 6
      vertex 2 2 6
    endloop
  endfacet
  facet normal 0.0 0.0 1.0
    outer loop
      vertex 0 0 6
      vertex 2 2 6
      vertex 2 6 6
    endloop
  endfacet
  facet normal 0.0 0.0 1.0
    outer loop
      vertex 0 0 6
      vertex 2 6 6
      vertex 0 6 6
    endloop
  endfacet
endsolid object
