solid object
  facet normal 0.0 0.0 -1.0
    outer loop
      vertex 0 0 0
      vertex 8 8 0
      vertex 8 0 0
    endloop
  endfacet
  facet normal 0.0 0.0 -1.0
    outer loop
      vertex 0 0 0
      vertex 0 8 0
      vertex 8 8 0
    endloop
  endfacet
  facet normal 0.0 0.0 1.0
    outer loop
      vertex 0 0 6
      vertex 8 0 6
      vertex 8 8 6
    endloop
  endfacet
  facet normal 0.0 0.0 1.0
    outer loop
      vertex 0 0 6
      vertex 8 8 6
      vertex 0 8 6
    endloop
  endfacet
  facet normal 0.0 0.0 -1.0
    outer loop
      vertex 3 3 0
      vertex 5 5 0
      vertex 5 3 0
    endloop
  endfacet
  facet normal 0.0 0.0 -1.0
    outer loop
      vertex 3 3 0
      vertex 3 5 0
      vertex 5 5 0
    endloop
  endfacet
  facet normal 0.0 0.0 1.0
    outer loop
      vertex 3 3 6
      vertex 5 3 6
      vertex 5 5 6
    endloop
  endfacet
  facet normal 0.0 0.0 1.0
    outer loop
      vertex 3 3 6
      vertex 5 5 6
      vertex 3 5 6
    endloop
  endfacet
  facet normal 0.0 -1.0 0.0
    outer loop
      vertex 0 0 0
      vertex 8 0 0
      vertex 8 0 6
    endloop
  endfacet
  facet normal 0.0 -1.0 0.0
    outer loop
      vertex 0 0 0
      vertex 8 0 6
      vertex 0 0 6
    endloop
  endfacet
  facet normal -1.0 0.0 0.0
    outer loop
      vertex 0 0 0
      vertex 0 8 6
      vertex 0 8 0
    endloop
  endfacet
  facet normal -1.0 0.0 0.0
    outer loop
      vertex 0 0 0
      vertex 0 0 6
      vertex 0 8 6
    endloop
  endfacet
  facet normal 1.0 0.0 0.0
    outer loop
      vertex 8 0 0
      vertex 8 8 0
      vertex 8 8 6
    endloop
  endfacet
  facet normal 1.0 0.0 0.0
    outer loop
      vertex 8 0 0
      vertex 8 8 6
      vertex 8 0 6
    endloop
  endfacet
  facet normal 0.0 1.0 0.0
    outer loop
      vertex 8 8 0
      vertex 0 8 0
      vertex 0 8 6
    endloop
  endfacet
  facet normal 0.0 1.0 0.0
    outer loop
      vertex 8 8 0
      vertex 0 8 6
      vertex 8 8 6
    endloop
  endfacet
  facet normal 0.0 -1.0 0.0
    outer loop
      vertex 3 3 0
      vertex 5 3 0
      vertex 5 3 6
    endloop
  endfacet
  facet normal 0.0 -1.0 0.0
    outer loop
      vertex 3 3 0
      vertex 5 3 6
      vertex 3 3 6
    endloop
  endfacet
  facet normal -1.0 0.0 0.0
    outer loop
      vertex 3 3 0
      vertex 3 5 6
      vertex 3 5 0
    endloop
  endfacet
  facet normal -1.0 0.0 0.0
    outer loop
      vertex 3 3 0
      vertex 3 3 6
      vertex 3 5 6
    endloop
  endfacet
  facet normal 1.0 0.0 0.0
    outer loop
      vertex 5 3 0
      vertex 5 5 0
      vertex 5 5 6
    endloop
  endfacet
  facet normal 1.0 0.0 0.0
    outer loop
      vertex 5 3 0
      vertex 5 5 6
      vertex 5 3 6
    endloop
  endfacet
  facet normal 0.0 1.0 0.0
    outer loop
      vertex 5 5 0
      vertex 3 5 0
      vertex 3 5 6
    endloop
  endfacet
  facet normal 0.0 1.0 0.0
    outer loop
      vertex 5 5 0
      vertex 3 5 6
      vertex 5 5 6
    endloop
  endfacet
endsolid object
