solid object
  facet normal 0.0 0.0 -1.0
    outer loop
      vertex 0 0 0
      vertex 8 4 0
      vertex 8 0 0
    endloop
  endfacet
  facet normal 0.0 0.0 -1.0
    outer loop
      vertex 0 0 0
      vertex 0 4 0
      vertex 8 4 0
    endloop
  endfacet
  facet normal 0.0 0.0 -1.0
    outer loop
      vertex 0 0 6
      vertex 8 4 6
      vertex 8 0 6
    endloop
  endfacet
  facet normal 0.0 0.0 -1.0
    outer loop
      vertex 0 0 6
      vertex 0 4 6
      vertex 8 4 6
    endloop
  endfacet
  facet normal 0.0 0.0 -1.0
    outer loop
      vertex 2 0 6
      vertex 6 4 6
      vertex 6 0 6
    endloop
  endfacet
  facet normal 0.0 0.0 -1.0
    outer loop
      vertex 2 0 6
      vertex 2 4 6
      vertex 6 4 6
    endloop
  endfacet
  facet normal 0.0 0.0 1.0
    outer loop
      vertex 2 0 9
      vertex 6 0 9
      vertex 6 4 9
    endloop
  endfacet
  facet normal 0.0 0.0 1.0
    outer loop
      vertex 2 0 9
      vertex 6 4 9
      vertex 2 4 9
    endloop
  endfacet
  facet normal 0.0 0.0 1.0
    outer loop
      vertex 3 0 9
      vertex 5 0 9
      vertex 5 4 9
    endloop
  endfacet
  facet normal 0.0 0.0 1.0
    outer loop
      vertex 3 0 9
      vertex 5 4 9
      vertex 3 4 9
    endloop
  endfacet
  facet normal 0.0 0.0 1.0
    outer loop
      vertex 3 0 12
      vertex 5 0 12
      vertex 5 4 12
    endloop
  endfacet
  facet normal 0.0 0.0 1.0
    outer loop
      vertex 3 0 12
      vertex 5 4 12
      vertex 3 4 12
    endloop
  endfacet
  facet normal 0.0 -1.0 0.0
    outer loop
      vertex 0 0 0
      vertex 8 0 0
      vertex 8 0 6
    endloop
  endfacet
  facet normal 0.0 -1.0 0.0
    outer loop
      vertex 0 0 0
      vertex 8 0 6
      vertex 0 0 6
    endloop
  endfacet
  facet normal 0.0 1.0 0.0
    outer loop
      vertex 8 4 0
      vertex 0 4 0
      vertex 0 4 6
    endloop
  endfacet
  facet normal 0.0 1.0 0.0
    outer loop
      vertex 8 4 0
      vertex 0 4 6
      vertex 8 4 6
    endloop
  endfacet
  facet normal -1.0 0.0 0.0
    outer loop
      vertex 0 0 0
      vertex 0 4 6
      vertex 0 4 0
    endloop
  endfacet
  facet normal -1.0 0.0 0.0
    outer loop
      vertex 0 0 0
      vertex 0 0 6
      vertex 0 4 6
    endloop
  endfacet
  facet normal 1.0 0.0 0.0
    outer loop
      vertex 8 0 0
      vertex 8 4 0
      vertex 8 4 6
    endloop
  endfacet
  facet normal 1.0 0.0 0.0
    outer loop
      vertex 8 0 0
      vertex 8 4 6
      vertex 8 0 6
    endloop
  endfacet
  facet normal 0.0 -1.0 0.0
    outer loop
      vertex 2 0 6
      vertex 6 0 6
      vertex 6 0 9
    endloop
  endfacet
  facet normal 0.0 -1.0 0.0
    outer loop
      vertex 2 0 6
      vertex 6 0 9
      vertex 2 0 9
    endloop
  endfacet
  facet normal -1.0 0.0 0.0
    outer loop
      vertex 2 0 6
      vertex 2 4 9
      vertex 2 4 6
    endloop
  endfacet
  facet normal -1.0 0.0 0.0
    outer loop
      vertex 2 0 6
      vertex 2 0 9
      vertex 2 4 9
    endloop
  endfacet
  facet normal 1.0 0.0 0.0
    outer loop
      vertex 6 0 6
      vertex 6 4 6
      vertex 6 4 9
    endloop
  endfacet
  facet normal 1.0 0.0 0.0
    outer loop
      vertex 6 0 6
      vertex 6 4 9
      vertex 6 0 9
    endloop
  endfacet
  facet normal 0.0 1.0 0.0
    outer loop
      vertex 6 4 6
      vertex 2 4 6
      vertex 2 4 9
    endloop
  endfacet
  facet normal 0.0 1.0 0.0
    outer loop
      vertex 6 4 6
      vertex 2 4 9
      vertex 6 4 9
    endloop
  endfacet
  facet normal -1.0 0.0 0.0
    outer loop
      vertex 3 0 9
      vertex 3 4 12
      vertex 3 4 9
    endloop
  endfacet
  facet normal -1.0 0.0 0.0
    outer loop
      vertex 3 0 9
      vertex 3 0 12
      vertex 3 4 12
    endloop
  endfacet
  facet normal 1.0 0.0 0.0
    outer loop
      vertex 5 0 9
      vertex 5 4 9
      vertex 5 4 12
    endloop
  endfacet
  facet normal 1.0 0.0 0.0
    outer loop
      vertex 5 0 9
      vertex 5 4 12
      vertex 5 0 12
    endloop
  endfacet
  facet normal 0.0 -1.0 0.0
    outer loop
      vertex 3 0 9
      vertex 5 0 9
      vertex 5 0 12
    endloop
  endfacet
  facet normal 0.0 -1.0 0.0
    outer loop
      vertex 3 0 9
      vertex 5 0 12
      vertex 3 0 12
    endloop
  endfacet
  facet normal 0.0 1.0 0.0
    outer loop
      vertex 5 4 9
      vertex 3 4 9
      vertex 3 4 12
    endloop
  endfacet
  facet normal 0.0 1.0 0.0
    outer loop
      vertex 5 4 9
      vertex 3 4 12
      vertex 5 4 12
    endloop
  endfacet
endsolid object
